<?xml version="1.0" encoding="UTF-8"?>
<svg version="1.1" xmlns="http://www.w3.org/2000/svg" width="126" height="126">
<path d="M0 0 C2.625 1.75 2.625 1.75 3.5 3.9375 C3.54125 4.535625 3.5825 5.13375 3.625 5.75 C1.45625748 5.24396008 -0.37467627 4.75016187 -2.375 3.75 C-4.08202735 3.68003986 -5.79168003 3.66559846 -7.5 3.6875 C-8.41007812 3.69652344 -9.32015625 3.70554687 -10.2578125 3.71484375 C-10.95648438 3.72644531 -11.65515625 3.73804688 -12.375 3.75 C-14.39012227 7.96865028 -14.78854068 11.95885432 -15 16.5625 C-15.03867187 17.25537109 -15.07734375 17.94824219 -15.1171875 18.66210938 C-15.21073568 20.35767015 -15.29392364 22.05379712 -15.375 23.75 C-14.715 23.75 -14.055 23.75 -13.375 23.75 C-13.16875 22.904375 -12.9625 22.05875 -12.75 21.1875 C-10.91376066 16.59690165 -7.91711452 12.02105726 -3.375 9.75 C-1.8969324 9.64903144 -0.41744883 9.56804362 1.0625 9.5 C3.47292234 9.31286374 3.47292234 9.31286374 5.625 8.75 C7.46925989 6.48183699 7.46925989 6.48183699 8.625 3.75 C13.04051746 -0.12703972 15.60404266 -1.58344785 21.58203125 -1.55078125 C24.70598097 -1.09084984 26.44499703 0.56999703 28.625 2.75 C28.295 3.74 27.965 4.73 27.625 5.75 C27.13 5.42 26.635 5.09 26.125 4.75 C21.64308956 2.95723583 17.26097472 3.33230433 12.6875 4.5 C10.44428535 5.57108004 10.44428535 5.57108004 9.8125 7.875 C9.7196875 8.803125 9.7196875 8.803125 9.625 9.75 C10.924375 9.62625 10.924375 9.62625 12.25 9.5 C16.59490431 9.82184476 18.31146217 10.9299678 21.625 13.75 C23.09732868 15.82392535 24.39555009 17.92560339 25.64453125 20.140625 C26.12986328 20.93726563 26.12986328 20.93726563 26.625 21.75 C26.955 21.75 27.285 21.75 27.625 21.75 C27.955 17.13 28.285 12.51 28.625 7.75 C31.625 8.75 31.625 8.75 32.625 10.75 C33.23758141 17.19388517 32.61505592 22.01905949 29.625 27.75 C26.28919124 27.46439993 24.98471415 27.17525529 22.78125 24.5703125 C22.2346875 23.68085937 21.688125 22.79140625 21.125 21.875 C18.72607884 17.99372662 16.81619876 15.69146296 12.625 13.75 C10.2818787 14.00561323 7.94656597 14.34270772 5.625 14.75 C4.59375 14.54375 3.5625 14.3375 2.5 14.125 C-1.24872972 13.63603525 -2.35934483 14.54445095 -5.375 16.75 C-7.12620906 19.13859748 -7.12620906 19.13859748 -8.5 21.8125 C-10.32918578 25.17919059 -11.12205516 26.58137011 -14.375 28.75 C-18.19983487 26.40574637 -18.19983487 26.40574637 -18.984375 23.46875 C-20.01292551 16.31003847 -20.31994731 9.74172828 -16.5703125 3.34375 C-12.25882111 -2.40490519 -6.32989903 -2.34440705 0 0 Z " fill="#B09EE5" transform="translate(55.375,37.25)"/>
<path d="M0 0 C1.60294922 0.15275391 1.60294922 0.15275391 3.23828125 0.30859375 C4.45064453 0.43427734 4.45064453 0.43427734 5.6875 0.5625 C6.35305924 6.95186874 4.66002304 10.57326262 0.6875 15.5625 C-3.20840008 19.90834911 -7.56458825 21.96946149 -13.3125 22.5625 C-16.8125 22.1875 -16.8125 22.1875 -19.3125 21.5625 C-19.3125 20.5725 -19.3125 19.5825 -19.3125 18.5625 C-18.22582031 18.41554688 -18.22582031 18.41554688 -17.1171875 18.265625 C-11.3475413 17.37325305 -6.72647895 16.65350488 -2.3125 12.5625 C-0.73744147 9.9851315 0.53619635 7.35271826 1.6875 4.5625 C-7.71090859 4.98821947 -7.71090859 4.98821947 -16.3125 8.5625 C-17.3025 8.5625 -18.2925 8.5625 -19.3125 8.5625 C-19.25 6.8125 -19.25 6.8125 -18.3125 4.5625 C-12.11612911 0.39186575 -7.49656936 -0.74141895 0 0 Z " fill="#B09EDD" transform="translate(85.3125,79.4375)"/>
<path d="M0 0 C17.51406389 -0.76517755 17.51406389 -0.76517755 24 4 C24.69140625 6.140625 24.69140625 6.140625 25 8 C21.62537285 7.45276317 19.91765 6.9451 17 5 C14.78415454 4.55296766 12.55158039 4.18536758 10.3125 3.875 C8.54326172 3.62363281 8.54326172 3.62363281 6.73828125 3.3671875 C5.38283203 3.18542969 5.38283203 3.18542969 4 3 C5.75463251 8.54094478 6.87627482 11.82817012 12 15 C16.21580097 17.16487077 20.34031621 17.52613385 25 18 C25 18.99 25 19.98 25 21 C19.22209208 22.67255229 14.27515968 21.67404408 9 19 C5.07666006 15.54540607 1.66835912 12.00507735 0 7 C-0.03954234 4.66700175 -0.04401732 2.33291811 0 0 Z " fill="#AE9FE4" transform="translate(33,68)"/>
<path d="M0 0 C0.99 0.33 1.98 0.66 3 1 C3 14.53 3 28.06 3 42 C1.68 42 0.36 42 -1 42 C-1.02464638 36.17928378 -1.0428343 30.35859766 -1.05493164 24.5378418 C-1.05997267 22.55606559 -1.06680538 20.57429311 -1.07543945 18.5925293 C-1.08751515 15.75047891 -1.09323045 12.90847753 -1.09765625 10.06640625 C-1.10281754 9.17474258 -1.10797882 8.28307892 -1.11329651 7.36439514 C-1.11349177 5.24259399 -1.0621003 3.1208922 -1 1 C-0.67 0.67 -0.34 0.34 0 0 Z " fill="#AE9BE1" transform="translate(61,66)"/>
<path d="M0 0 C2.92454673 0.34377125 4.59147238 0.62869182 6.80078125 2.63671875 C10.89514022 8.19108169 10.89514022 8.19108169 11.4375 12.375 C11 15 11 15 10 17 C9.01 16.67 8.02 16.34 7 16 C6.33984375 14.2578125 6.33984375 14.2578125 5.9375 12.125 C5.3349444 9.01466536 4.84080823 7.76121234 3 5 C0.6342642 5.94629432 -0.73981398 6.61656797 -2.1875 8.75 C-3.17064468 11.47255451 -3.60960064 14.13707134 -4 17 C-4.99 16.67 -5.98 16.34 -7 16 C-7.8435518 9.25158562 -7.8435518 9.25158562 -5.44140625 5.6875 C-3.68986437 3.71393169 -1.9040047 1.82629022 0 0 Z " fill="#B0A0DE" transform="translate(60,18)"/>
<path d="M0 0 C0.97582031 0.10183594 1.95164062 0.20367187 2.95703125 0.30859375 C3.69308594 0.39238281 4.42914063 0.47617188 5.1875 0.5625 C4.8575 1.8825 4.5275 3.2025 4.1875 4.5625 C3.24648437 4.59988281 2.30546875 4.63726562 1.3359375 4.67578125 C-0.53191406 4.77439453 -0.53191406 4.77439453 -2.4375 4.875 C-4.28214844 4.96201172 -4.28214844 4.96201172 -6.1640625 5.05078125 C-9.97073563 5.58469365 -12.45145487 6.76641142 -15.8125 8.5625 C-16.8025 8.5625 -17.7925 8.5625 -18.8125 8.5625 C-18.75 6.8125 -18.75 6.8125 -17.8125 4.5625 C-11.81982815 0.52897087 -7.26052559 -0.78728591 0 0 Z " fill="#BBABE8" transform="translate(84.8125,79.4375)"/>
<path d="M0 0 C3 1 3 1 4.3125 3.5625 C5.80510127 6.30081008 5.80510127 6.30081008 8.9375 6.6875 C12.29752954 6.27046538 12.29752954 6.27046538 14.375 3 C15.179375 1.515 15.179375 1.515 16 0 C16.99 0.33 17.98 0.66 19 1 C15.95049505 9.08118812 15.95049505 9.08118812 12 11 C8.97373918 11.52630623 7.01193722 11.59166631 4.31640625 10.015625 C1.97570831 8.19695322 0.23859339 6.55671792 -0.9375 3.8125 C-1 2 -1 2 0 0 Z " fill="#AD9CE4" transform="translate(53,53)"/>
<path d="M0 0 C0.33 0.99 0.66 1.98 1 3 C-0.98 3.66 -2.96 4.32 -5 5 C-5.66 8.3 -6.32 11.6 -7 15 C-8.32 15 -9.64 15 -11 15 C-11.45189183 8.56054147 -10.69406417 5.32379836 -7 0 C-4.3333581 -1.33332095 -2.83319697 -0.67102033 0 0 Z " fill="#A49BDA" transform="translate(53,19)"/>
<path d="M0 0 C3.17564931 1.36099256 3.52602942 2.26731773 5 5.3125 C6.57923153 9.26689575 6.90627249 11.96086439 5.625 16.125 C4.635 16.125 3.645 16.125 2.625 16.125 C1.965 12.825 1.305 9.525 0.625 6.125 C-1.355 5.465 -3.335 4.805 -5.375 4.125 C-5.045 3.135 -4.715 2.145 -4.375 1.125 C-2.375 0.125 -2.375 0.125 0 0 Z " fill="#AF9CE3" transform="translate(75.375,17.875)"/>
<path d="M0 0 C0.99 0.33 1.98 0.66 3 1 C3 8.59 3 16.18 3 24 C2.01 24 1.02 24 0 24 C0 16.08 0 8.16 0 0 Z " fill="#B39DE5" transform="translate(60,68)"/>
<path d="M0 0 C3 2 3 2 5 4 C4.67 4.99 4.34 5.98 4 7 C3.43539062 6.6803125 2.87078125 6.360625 2.2890625 6.03125 C-0.79699987 4.64094204 -3.63320703 4.56589987 -6.9765625 4.34375 C-9 4 -9 4 -11 2 C-7.32209331 -0.45193779 -4.27407725 -0.71511798 0 0 Z " fill="#B9A4F0" transform="translate(79,36)"/>
<path d="M0 0 C1.07765625 0.11085938 2.1553125 0.22171875 3.265625 0.3359375 C4.08546875 0.43132812 4.9053125 0.52671875 5.75 0.625 C5.75 1.615 5.75 2.605 5.75 3.625 C-0.14695128 5.33201221 -4.66988817 3.57693635 -10.25 1.625 C-6.69181064 -0.63773207 -4.12452049 -0.44831744 0 0 Z " fill="#A69BDA" transform="translate(52.25,85.375)"/>
<path d="M0 0 C1.8871875 0.061875 1.8871875 0.061875 3.8125 0.125 C3.4825 0.785 3.1525 1.445 2.8125 2.125 C5.4525 2.455 8.0925 2.785 10.8125 3.125 C7.46238302 5.35841132 7.1429443 5.28262151 3.4375 4.625 C-0.36662411 4.08509984 -2.72802416 4.22786809 -6.1875 6.125 C-6.5175 4.805 -6.8475 3.485 -7.1875 2.125 C-4.09861478 0.06574319 -3.47814073 -0.1140374 0 0 Z " fill="#A695D7" transform="translate(56.1875,46.875)"/>
<path d="M0 0 C8.08888889 -0.46666667 8.08888889 -0.46666667 11.5625 1.3125 C13 3 13 3 13 6 C12.44828125 5.85691406 11.8965625 5.71382812 11.328125 5.56640625 C8.81285231 4.9544691 6.28957492 4.43873189 3.75 3.9375 C2.85796875 3.76089844 1.9659375 3.58429687 1.046875 3.40234375 C0.37140625 3.26957031 -0.3040625 3.13679688 -1 3 C-0.67 2.01 -0.34 1.02 0 0 Z " fill="#A393DC" transform="translate(46,37)"/>
<path d="M0 0 C0.66 0.66 1.32 1.32 2 2 C1.52949219 2.39832031 1.05898438 2.79664063 0.57421875 3.20703125 C-1.31760553 5.3617393 -1.66060789 6.89091882 -2.1875 9.6875 C-2.42533203 10.89986328 -2.42533203 10.89986328 -2.66796875 12.13671875 C-2.77753906 12.75160156 -2.88710938 13.36648437 -3 14 C-3.99 13.67 -4.98 13.34 -6 13 C-6 10.36 -6 7.72 -6 5 C-5.01 5 -4.02 5 -3 5 C-3 4.34 -3 3.68 -3 3 C-2.34 3 -1.68 3 -1 3 C-0.67 2.01 -0.34 1.02 0 0 Z " fill="#A294DA" transform="translate(59,21)"/>
<path d="M0 0 C2.17457267 2.87354245 3 4.36436591 3 8 C2.34 8 1.68 8 1 8 C0.34 7.01 -0.32 6.02 -1 5 C-3.05925139 4.27617533 -3.05925139 4.27617533 -5 4 C-5.33 4.66 -5.66 5.32 -6 6 C-6.66 6 -7.32 6 -8 6 C-8 6.66 -8 7.32 -8 8 C-8.66 7.67 -9.32 7.34 -10 7 C-9.09827532 5.82174642 -8.17798498 4.65768423 -7.25 3.5 C-6.73953125 2.8503125 -6.2290625 2.200625 -5.703125 1.53125 C-4 0 -4 0 0 0 Z " fill="#AD9CEA" transform="translate(64,18)"/>
<path d="M0 0 C0.99 0.33 1.98 0.66 3 1 C3 10.57 3 20.14 3 30 C2.67 30 2.34 30 2 30 C2 21.09 2 12.18 2 3 C1.01 2.67 0.02 2.34 -1 2 C-0.67 1.34 -0.34 0.68 0 0 Z " fill="#A996D0" transform="translate(61,66)"/>
<path d="M0 0 C1.32 0.66 2.64 1.32 4 2 C2.625 3.5 2.625 3.5 1 5 C0.34 5 -0.32 5 -1 5 C-1.33 6.32 -1.66 7.64 -2 9 C-3.32 8.67 -4.64 8.34 -6 8 C-4.26440562 4.942048 -2.61527381 2.36620011 0 0 Z " fill="#A897DE" transform="translate(67,38)"/>
<path d="M0 0 C1.5 1.125 1.5 1.125 3 3 C3.1875 6.1875 3.1875 6.1875 3 9 C1.68 9 0.36 9 -1 9 C-1.09765625 2.84765625 -1.09765625 2.84765625 -1 1 C-0.67 0.67 -0.34 0.34 0 0 Z " fill="#B7ACEF" transform="translate(43,25)"/>
<path d="M0 0 C3 1 3 1 4 3 C4.06950541 4.54023996 4.08452357 6.08334988 4.0625 7.625 C4.05347656 8.44226562 4.04445313 9.25953125 4.03515625 10.1015625 C4.02355469 10.72804688 4.01195313 11.35453125 4 12 C1.95780294 10.30820672 1.08206694 9.36272334 0.48828125 6.73828125 C0.43027344 5.93777344 0.37226562 5.13726562 0.3125 4.3125 C0.24675781 3.50425781 0.18101563 2.69601563 0.11328125 1.86328125 C0.07589844 1.24839844 0.03851563 0.63351563 0 0 Z " fill="#AC9ED7" transform="translate(84,45)"/>
<path d="M0 0 C2.5 1.25 2.5 1.25 5 3 C5 4.32 5 5.64 5 7 C4.46375 6.690625 3.9275 6.38125 3.375 6.0625 C0.6015043 4.82172561 -2.00042837 4.4090325 -5 4 C-4.34 3.34 -3.68 2.68 -3 2 C-2.01 2 -1.02 2 0 2 C0 1.34 0 0.68 0 0 Z " fill="#AE9DD9" transform="translate(78,36)"/>
<path d="M0 0 C1.98 0.99 1.98 0.99 4 2 C3.67 3.98 3.34 5.96 3 8 C2.01 8 1.02 8 0 8 C0 5.36 0 2.72 0 0 Z " fill="#B7A4ED" transform="translate(78,26)"/>
<path d="M0 0 C0.99 0 1.98 0 3 0 C5 3 5 3 5 7 C5.99 7.33 6.98 7.66 8 8 C4.89347355 7.6641593 3.39585697 7.40950721 1.1875 5.125 C0 3 0 3 0 0 Z " fill="#AC9FDA" transform="translate(77,57)"/>
<path d="M0 0 C0.66 0.99 1.32 1.98 2 3 C0.741875 3.04125 -0.51625 3.0825 -1.8125 3.125 C-2.52019531 3.14820313 -3.22789063 3.17140625 -3.95703125 3.1953125 C-6 3 -6 3 -9 1 C-5.92859432 0.08995387 -3.20100846 -0.33694826 0 0 Z " fill="#BBA0F4" transform="translate(65,47)"/>
<path d="M0 0 C0.66 0.33 1.32 0.66 2 1 C4.09821215 0.60061233 4.09821215 0.60061233 6 0 C6 0.99 6 1.98 6 3 C3.69 3.33 1.38 3.66 -1 4 C-1 3.34 -1 2.68 -1 2 C-1.66 1.67 -2.32 1.34 -3 1 C-2.01 0.67 -1.02 0.34 0 0 Z " fill="#B8A3E7" transform="translate(74,97)"/>
<path d="M0 0 C1.6875 1.5625 1.6875 1.5625 3 3 C-4.75 2.25 -4.75 2.25 -7 0 C-3.98968256 -0.93423645 -3.13349732 -1.04449911 0 0 Z " fill="#9A90D0" transform="translate(49,86)"/>
<path d="M0 0 C-1.485 1.485 -1.485 1.485 -3 3 C-3.99 2.67 -4.98 2.34 -6 2 C-6.99 2.33 -7.98 2.66 -9 3 C-9 2.34 -9 1.68 -9 1 C-5.64919071 -1.10976881 -3.77897651 -1.0497157 0 0 Z " fill="#A99AD5" transform="translate(84,96)"/>
<path d="M0 0 C0.99 0.33 1.98 0.66 3 1 C1.02 3.97 1.02 3.97 -1 7 C-1.99 6.01 -2.98 5.02 -4 4 C-3.01 3.67 -2.02 3.34 -1 3 C-0.67 2.01 -0.34 1.02 0 0 Z " fill="#ACA4E4" transform="translate(47,21)"/>
</svg>
